<?xml version="1.0" encoding="utf-8"?>
<!-- Generator: Adobe Illustrator 27.9.0, SVG Export Plug-In . SVG Version: 6.00 Build 0)  -->
<svg version="1.1" id="Layer_1" xmlns="http://www.w3.org/2000/svg" xmlns:xlink="http://www.w3.org/1999/xlink" x="0px" y="0px"
	 viewBox="0 0 48 48" style="enable-background:new 0 0 48 48;" xml:space="preserve">
<style type="text/css">
	.st0{fill:#FFFFFF;}
</style>
<path class="st0" d="M17.9,43.1c-1.4,0-2.6-0.4-3.7-1.2s-1.8-1.9-2.3-3.2c-0.5,0.8-1,1.3-1.7,1.8c-0.7,0.4-1.5,0.6-2.4,0.6
	c-1.4,0-2.5-0.5-3.4-1.4S3,37.5,3,36.2c0-1.4,0.4-2.6,1.3-3.4c0.9-0.8,2-1.3,3.4-1.3c-0.5-0.6-0.9-1.3-1.2-2S6.1,28,6.1,27.2
	c0-1.1,0.3-2.1,0.9-3.1s1.4-1.7,2.4-2.3c0.1,0.4,0.3,0.8,0.5,1.2s0.4,0.8,0.7,1.1c-0.6,0.4-1,0.8-1.4,1.4c-0.3,0.6-0.5,1.1-0.5,1.7
	c0,1.7,0.7,2.9,2.1,3.3c1.4,0.5,2.8,0.8,4.1,1.1l0.5,0.8c-0.3,1-0.6,1.9-0.9,2.5s-0.3,1.3-0.3,1.8c0,1,0.4,1.9,1.1,2.6
	c0.7,0.7,1.6,1.1,2.6,1.1c1.2,0,2.2-0.5,3-1.5s1.4-2.2,1.9-3.6s0.9-2.8,1.1-4.2c0.3-1.4,0.5-2.5,0.7-3.3l2.5,0.7
	c-0.3,1.3-0.6,2.7-0.9,4.4s-0.9,3.2-1.5,4.7c-0.7,1.5-1.5,2.8-2.6,3.8C21,42.6,19.6,43.1,17.9,43.1z M7.8,38.5
	c0.6,0,1.1-0.2,1.6-0.6C9.8,37.5,10,37,10,36.3c0-0.6-0.2-1.1-0.6-1.6c-0.4-0.4-0.9-0.6-1.6-0.6s-1.1,0.2-1.6,0.6
	c-0.4,0.4-0.6,0.9-0.6,1.6c0,0.6,0.2,1.1,0.6,1.6S7.2,38.5,7.8,38.5z M21,30.1c-1.3-1.2-2.5-2.3-3.6-3.3s-2-2-2.8-3
	s-1.4-1.9-1.8-2.8c-0.4-0.9-0.6-1.9-0.6-3c0-1.7,0.6-3.2,1.8-4.5s2.7-1.8,4.5-1.8c0.3,0,0.5,0,0.7,0s0.5,0.1,0.7,0.1
	c-0.3-0.5-0.5-0.9-0.6-1.3c-0.1-0.3-0.2-0.7-0.2-1c0-1.3,0.5-2.5,1.4-3.4s2.1-1.4,3.4-1.4s2.5,0.5,3.4,1.4s1.4,2.1,1.4,3.4
	c0,0.3-0.1,0.7-0.2,1c-0.1,0.4-0.3,0.8-0.6,1.3c0.2-0.1,0.5-0.1,0.7-0.1s0.5,0,0.7,0c1.7,0,3.1,0.5,4.2,1.6c1.2,1.1,1.8,2.4,2,4
	c-0.4,0-0.8,0-1.3,0s-0.9,0.1-1.3,0.1c-0.1-0.9-0.5-1.6-1.2-2.2s-1.4-0.9-2.4-0.9c-1.1,0-1.9,0.3-2.6,0.9c-0.6,0.6-1.5,1.5-2.5,2.7
	h-0.9c-1.1-1.3-1.9-2.2-2.6-2.8c-0.6-0.6-1.5-0.9-2.5-0.9s-1.9,0.3-2.6,1c-0.7,0.7-1,1.6-1,2.6c0,0.7,0.2,1.4,0.6,2.1
	c0.4,0.7,0.9,1.5,1.6,2.3s1.5,1.7,2.5,2.6s2.1,1.9,3.3,3L21,30.1z M24,11.8c0.6,0,1.1-0.2,1.6-0.6c0.4-0.4,0.6-0.9,0.6-1.6
	C26.2,9,26,8.5,25.6,8c-0.4-0.4-0.9-0.6-1.6-0.6c-0.6,0-1.1,0.2-1.6,0.6c-0.4,0.5-0.6,1-0.6,1.6s0.2,1.1,0.6,1.6
	C22.8,11.6,23.4,11.8,24,11.8z M30,43.2c-0.6,0-1.3-0.1-1.9-0.3s-1.2-0.5-1.8-0.9c0.2-0.3,0.5-0.7,0.7-1.2c0.2-0.4,0.4-0.8,0.6-1.2
	c0.4,0.3,0.8,0.6,1.2,0.7c0.4,0.2,0.9,0.2,1.3,0.2c1,0,1.9-0.4,2.6-1.1c0.7-0.7,1.1-1.6,1.1-2.6c0-0.6-0.1-1.2-0.3-1.9
	s-0.5-1.5-0.8-2.5l0.5-0.8c1.3-0.2,2.7-0.6,4.1-1c1.4-0.5,2.1-1.6,2.1-3.3c0-1.3-0.5-2.2-1.4-2.9c-0.9-0.6-2-0.9-3.1-0.9
	c-1.2,0-2.7,0.2-4.4,0.7s-3.6,1.1-5.8,1.8L24,23.5c2.2-0.7,4.2-1.3,6-1.8s3.4-0.7,4.9-0.7c1.9,0,3.5,0.6,5,1.7
	c1.4,1.1,2.2,2.7,2.2,4.7c0,0.8-0.1,1.6-0.4,2.3c-0.3,0.8-0.7,1.4-1.2,2c1.3,0,2.5,0.5,3.4,1.3s1.4,2,1.4,3.4c0,1.3-0.5,2.4-1.4,3.4
	s-2,1.4-3.4,1.4c-0.9,0-1.7-0.2-2.4-0.6c-0.7-0.4-1.3-1-1.7-1.8c-0.5,1.3-1.2,2.4-2.3,3.2C32.7,42.8,31.4,43.2,30,43.2z M40.2,38.5
	c0.6,0,1.1-0.2,1.5-0.6s0.6-0.9,0.6-1.6c0-0.6-0.2-1.1-0.7-1.6c-0.4-0.5-0.9-0.7-1.5-0.7s-1.1,0.2-1.5,0.7s-0.6,1-0.6,1.6
	s0.2,1.1,0.7,1.6S39.6,38.5,40.2,38.5z"/>
</svg>
