<svg height="24" viewBox="0 0 40 41" width="24" xmlns="http://www.w3.org/2000/svg" class="eui-styles-um2uag">
<path class="custom" clip-rule="evenodd" d="M 13.7146 0.516113 C 11.4582 0.516113 9.2943 1.41245 7.69881 3.00794 L 0 10.7067 V 14.2307 C 0 16.7204 1.06944 18.9603 2.77401 20.5161 C 1.06944 22.0719 0 24.3118 0 26.8015 V 30.3255 L 7.69881 38.0243 C 9.2943 39.6198 11.4582 40.5161 13.7146 40.5161 C 16.2043 40.5161 18.4442 39.4467 20 37.7421 C 21.5558 39.4467 23.7957 40.5161 26.2854 40.5161 C 28.5418 40.5161 30.7057 39.6198 32.3012 38.0243 L 40 30.3255 V 26.8015 C 40 24.3118 38.9306 22.0719 37.226 20.5161 C 38.9306 18.9603 40 16.7204 40 14.2307 V 10.7067 L 32.3012 3.00794 C 30.7057 1.41245 28.5418 0.516113 26.2854 0.516113 C 23.7957 0.516113 21.5558 1.58555 20 3.29012 C 18.4442 1.58555 16.2043 0.516113 13.7146 0.516113 Z M 25.7588 20.5161 C 25.6629 20.4286 25.5688 20.3387 25.4766 20.2465 L 20 14.7699 L 14.5234 20.2465 C 14.4312 20.3387 14.3371 20.4286 14.2412 20.5161 C 14.3371 20.6036 14.4312 20.6935 14.5234 20.7857 L 20 26.2623 L 25.4766 20.7857 C 25.5688 20.6935 25.6629 20.6036 25.7588 20.5161 Z M 22.2222 30.3255 L 22.2222 32.0085 C 22.2222 34.2525 24.0414 36.0717 26.2854 36.0717 C 27.363 36.0717 28.3965 35.6436 29.1585 34.8816 L 35.5556 28.4845 V 26.8015 C 35.5556 24.5575 33.7364 22.7383 31.4924 22.7383 C 30.4148 22.7383 29.3813 23.1664 28.6193 23.9284 L 22.2222 30.3255 Z M 17.7778 30.3255 L 11.3807 23.9284 C 10.6187 23.1664 9.58524 22.7383 8.50762 22.7383 C 6.26359 22.7383 4.44444 24.5575 4.44444 26.8015 V 28.4845 L 10.8415 34.8816 C 11.6035 35.6436 12.637 36.0717 13.7146 36.0717 C 15.9586 36.0717 17.7778 34.2525 17.7778 32.0085 V 30.3255 Z M 17.7778 9.02373 V 10.7067 L 11.3807 17.1038 C 10.6187 17.8658 9.58524 18.2939 8.50762 18.2939 C 6.26359 18.2939 4.44444 16.4747 4.44444 14.2307 V 12.5477 L 10.8415 6.15063 C 11.6035 5.38864 12.637 4.96056 13.7146 4.96056 C 15.9586 4.96056 17.7778 6.7797 17.7778 9.02373 Z M 28.6193 17.1038 L 22.2222 10.7067 L 22.2222 9.02373 C 22.2222 6.7797 24.0414 4.96056 26.2854 4.96056 C 27.363 4.96056 28.3965 5.38864 29.1585 6.15063 L 35.5556 12.5477 V 14.2307 C 35.5556 16.4747 33.7364 18.2939 31.4924 18.2939 C 30.4148 18.2939 29.3813 17.8658 28.6193 17.1038 Z" fill="#FFF" fill-rule="evenodd"></path>
</svg>