<svg width="256" height="256" viewBox="0 0 896 1024" xmlns="http://www.w3.org/2000/svg"><rect x="0" y="0" width="896" height="1024" rx="8" fill="none"/><svg xmlns="http://www.w3.org/2000/svg" viewBox="0 0 896 1024" fill="#000000" x="0" y="0" width="896" height="1024"><path fill="#000000" d="M832 1024H64q-26 0-45-18.5T0 960V512q0-27 19-45.5T64 448h64V320q0-87 43-160.5T287.5 43T448 0t160.5 43T725 159.5T768 320v128h64q27 0 45.5 18.5T896 512v448q0 27-18.5 45.5T832 1024zm-512-64h256l-81-201q36-15 58.5-47t22.5-72q0-53-37.5-90.5T448 512t-90.5 37.5T320 640q0 40 22.5 72t58.5 47zm320-640q0-80-56-136t-135.5-56t-136 56T256 320v128h384V320z"/></svg></svg>